<?xml version="1.0" standalone="no"?>
<!DOCTYPE svg PUBLIC "-//W3C//DTD SVG 20010904//EN"
 "http://www.w3.org/TR/2001/REC-SVG-20010904/DTD/svg10.dtd">
<svg version="1.0" xmlns="http://www.w3.org/2000/svg"
 width="369.000000pt" height="369.000000pt" viewBox="0 0 369.000000 369.000000"
 preserveAspectRatio="xMidYMid meet">
<metadata>
Created by potrace 1.14, written by Peter Selinger 2001-2017
</metadata>
<g transform="translate(0.000000,369.000000) scale(0.100000,-0.100000)"
fill="#000000" stroke="none">
<path d="M2919 3603 c-13 -16 -12 -17 4 -4 16 13 21 21 13 21 -2 0 -10 -8 -17
-17z"/>
<path d="M2556 3074 c-126 -17 -170 -30 -261 -74 -101 -49 -145 -86 -252 -219
-208 -255 -322 -367 -443 -437 -49 -28 -214 -91 -275 -105 -27 -6 -170 -12
-317 -14 -280 -4 -387 -11 -404 -28 -4 -4 -13 -7 -21 -7 -7 0 -46 -16 -86 -35
-135 -63 -244 -207 -285 -375 -8 -35 -8 -278 0 -315 67 -280 287 -555 553
-689 68 -34 219 -88 280 -100 17 -4 41 -9 55 -11 137 -28 465 -27 600 0 14 3
41 8 60 11 157 25 416 114 623 213 96 47 286 155 297 169 3 4 24 20 47 36 37
25 168 155 216 215 99 123 208 314 277 484 23 56 48 112 56 124 8 12 14 33 14
45 0 13 7 46 16 73 25 82 21 282 -10 430 -12 56 -103 257 -146 320 -38 56
-149 162 -207 198 -26 16 -60 38 -74 48 -60 41 -192 59 -313 43z m196 -202
c154 -54 269 -186 342 -391 65 -180 65 -317 0 -509 -49 -143 -193 -431 -241
-480 -7 -7 -13 -17 -13 -22 0 -18 -238 -249 -293 -284 -113 -72 -418 -218
-557 -265 -68 -24 -233 -64 -315 -77 -27 -4 -59 -9 -70 -11 -11 -2 -94 -6
-185 -9 -128 -4 -183 -1 -245 12 -44 9 -91 18 -105 21 -39 7 -171 53 -213 75
-164 82 -308 224 -395 389 -67 124 -77 167 -77 314 0 121 2 134 28 190 35 76
120 158 185 179 75 25 97 27 537 41 83 3 168 7 190 10 63 8 190 53 299 106
209 100 239 127 517 456 71 83 147 165 168 182 34 27 113 68 138 73 5 1 25 7
46 13 57 17 194 10 259 -13z"/>
<path d="M2238 2544 c-55 -29 -60 -112 -9 -151 26 -20 77 -15 106 10 79 68 -4
190 -97 141z"/>
<path d="M2159 2286 c-13 -6 -50 -55 -84 -108 -116 -185 -215 -265 -375 -302
-70 -16 -152 -15 -298 4 -98 13 -104 12 -129 -7 -34 -25 -44 -61 -28 -101 16
-36 31 -45 105 -63 79 -18 84 -19 202 -23 134 -4 252 19 352 69 142 71 328
286 371 429 13 43 13 47 -8 70 -30 33 -78 47 -108 32z"/>
</g>
</svg>
